# xmcd
# 
# Track frame offsets:
#     150
#     39263
#     53964
#     73797
#     95248
#     119155
# 
# Disc length: 2492
# 
# Revision: 0
# Processed by: cddbd v1.5.2PL0 Copyright (c) Steve Scherf et al.
# Submitted via: fre:ac v1.0.17
# 
DISCID=5909ba06
DTITLE=Blind Faith - Blind Faith
DYEAR=1669
DGENRE=Blues
TTITLE0=Had to Cry Today
TTITLE1=Can't Find My Way Home
TTITLE2=Well Alright
TTITLE3=Presence of the Lord
TTITLE4=Sea of Joy
TTITLE5=Do What You Like
EXTD=Digital Copy of Album
EXTT0=
EXTT1=
EXTT2=
EXTT3=
EXTT4=
EXTT5=
PLAYORDER=
